<svg width="40" height="41" viewBox="0 0 40 41" fill="none" xmlns="http://www.w3.org/2000/svg">
<path fill-rule="evenodd" clip-rule="evenodd" d="M0 13C0 11.6739 0.526784 10.4021 1.46447 9.46447C2.40215 8.52678 3.67392 8 5 8H23.75C24.9627 7.99986 26.1342 8.44048 27.0462 9.23982C27.9582 10.0392 28.5486 11.1427 28.7075 12.345L36.4825 8.89C36.8631 8.72043 37.28 8.64866 37.6953 8.68121C38.1107 8.71377 38.5113 8.84962 38.8608 9.07641C39.2103 9.3032 39.4976 9.61374 39.6966 9.97981C39.8955 10.3459 39.9998 10.7559 40 11.1725V29.8275C39.9996 30.2438 39.8953 30.6534 39.6965 31.0192C39.4977 31.385 39.2107 31.6953 38.8615 31.922C38.5124 32.1488 38.1121 32.2847 37.6971 32.3175C37.2821 32.3504 36.8655 32.279 36.485 32.11L28.7075 28.655C28.5486 29.8573 27.9582 30.9608 27.0462 31.7602C26.1342 32.5595 24.9627 33.0001 23.75 33H5C3.67392 33 2.40215 32.4732 1.46447 31.5355C0.526784 30.5979 0 29.3261 0 28V13ZM28.75 25.9375L37.5 29.8275V11.1725L28.75 15.0625V25.9375ZM5 10.5C4.33696 10.5 3.70107 10.7634 3.23223 11.2322C2.76339 11.7011 2.5 12.337 2.5 13V28C2.5 28.663 2.76339 29.2989 3.23223 29.7678C3.70107 30.2366 4.33696 30.5 5 30.5H23.75C24.413 30.5 25.0489 30.2366 25.5178 29.7678C25.9866 29.2989 26.25 28.663 26.25 28V13C26.25 12.337 25.9866 11.7011 25.5178 11.2322C25.0489 10.7634 24.413 10.5 23.75 10.5H5Z" fill="#2545FF"/>
</svg>
