<svg width="33" height="32" viewBox="0 0 33 32" fill="none" xmlns="http://www.w3.org/2000/svg">
<g clip-path="url(#clip0_837_1455)">
<path d="M25.0537 23.7974L25.2148 23.8228L26.3867 24.0044L26.3955 24.0054C26.7037 24.0482 27.0015 24.2416 27.207 24.5435V24.5444L29.9287 28.6069C30.0217 28.7532 30.0543 28.8702 30.0576 28.9468C30.0603 29.0103 30.0445 29.0495 30.0117 29.0854L27.6855 31.4126C27.6324 31.4656 27.584 31.4815 27.5303 31.4819C27.4818 31.4823 27.4083 31.4694 27.3115 31.4214L27.207 31.3608L23.1377 28.604L23.1348 28.6021L23.0293 28.5249C22.7939 28.3328 22.6338 28.0702 22.5967 27.8042L22.1016 27.8726L22.5977 27.8032L22.5957 27.7954L22.4141 26.6235L22.3887 26.4624L16.9062 20.98C17.0719 20.7705 17.2447 20.5557 17.4258 20.3354L23.2773 26.188L23.5107 27.4917L23.5449 27.6851L23.7021 27.8032L26.9961 30.2896L27.3428 30.5522L29.1426 28.7524L28.8818 28.4058L26.3945 25.0981L26.2754 24.939L26.0791 24.9058L24.7773 24.6851L18.8027 18.7222C18.9815 18.5201 19.167 18.3139 19.3594 18.103L25.0537 23.7974ZM6.42871 2.5083C7.1505 2.51205 7.92398 2.83893 8.72461 3.58154L8.88477 3.73486L16.5762 11.438C16.6073 11.5222 16.6385 11.6063 16.6729 11.689C16.5081 11.8501 16.3463 12.0083 16.1865 12.1616L8.22168 4.19678L8.01758 4.0083C7.53361 3.59319 6.99438 3.34613 6.41797 3.34229C5.83901 3.33855 5.30179 3.58066 4.82422 3.99854L4.62305 4.18799L2.78906 6.03564L2.78809 6.0376C2.26277 6.57021 1.93786 7.17301 1.93555 7.83154C1.93361 8.40923 2.1799 8.94511 2.59961 9.42822L2.79004 9.63232L10.3047 17.147C10.0789 17.3093 9.85993 17.4635 9.64648 17.6099L2.3252 10.2798L2.1709 10.1206C1.42914 9.32612 1.10335 8.55516 1.09961 7.83545C1.09598 7.11689 1.41289 6.35686 2.13574 5.58154L2.28613 5.42627L4.01758 3.69482C4.84672 2.86568 5.6604 2.50433 6.42871 2.5083Z" fill="#2545FF" stroke="#2545FF"/>
<path d="M2.63612 30.2297C4.90175 32.4693 7.9356 32.4953 10.1622 30.2557C12.9616 27.4302 12.5189 24.2531 21.0606 15.5813C23.847 16.8963 27.2194 16.4537 29.459 14.227C31.8027 11.8833 32.2065 8.18538 30.4617 5.1906L26.9199 8.73226C26.5683 9.08382 26.1257 9.10986 25.7481 8.73226L24.1595 7.1307C23.7819 6.74008 23.7429 6.28434 24.0945 5.93278L27.6491 2.40413C24.6803 0.672363 20.9956 1.06299 18.6517 3.41976C16.4122 5.65934 15.9565 9.01872 17.2716 11.8052C8.61268 20.3469 5.4356 19.9041 2.61008 22.6906C0.357478 24.9171 0.38352 27.9641 2.63612 30.2297ZM20.058 12.8078C17.7404 10.4901 17.6492 6.8182 19.8627 4.6307C21.1127 3.36768 22.8965 2.85986 24.6022 3.1333L22.7142 5.02132C21.7507 5.97184 21.7767 7.1958 22.7794 8.17237L24.7065 10.0864C25.67 11.05 26.907 11.076 27.8183 10.1515L29.7325 8.22445C30.0189 9.95622 29.4981 11.7401 28.235 13.0161C26.0346 15.2166 22.3888 15.1125 20.058 12.8078ZM3.92519 28.9406C2.42779 27.4171 2.45383 25.477 3.88612 24.0317C7.03716 20.9067 8.91216 22.2349 18.1439 13.2114C18.3522 13.4979 18.5866 13.7583 18.8341 14.0187C19.0814 14.2661 19.3549 14.5135 19.6413 14.7218C10.6309 23.9537 11.959 25.8286 8.83404 28.9537C7.38872 30.4119 5.4356 30.425 3.92519 28.9406ZM6.34706 28.1593C7.23247 28.1593 7.96164 27.4302 7.96164 26.5447C7.96164 25.6593 7.23247 24.9431 6.34706 24.9431C5.46164 24.9431 4.7455 25.6593 4.7455 26.5447C4.7455 27.4302 5.46164 28.1593 6.34706 28.1593Z" fill="black" fill-opacity="0.85"/>
</g>
<defs>
<clipPath id="clip0_837_1455">
<rect width="32" height="32" fill="white" transform="translate(0.599609)"/>
</clipPath>
</defs>
</svg>
