<svg width="33" height="32" viewBox="0 0 33 32" fill="none" xmlns="http://www.w3.org/2000/svg">
<g clip-path="url(#clip0_837_2361)">
<path d="M12.1143 9.12207V9.25488H11.0967V9.12207H12.1143ZM23.2998 9.12207V9.22949H22.2812V9.12207H23.2998ZM14.2422 4.5H20.1533C21.2579 4.5 22.0234 4.76863 22.5137 5.23926C23.0002 5.70649 23.2998 6.45364 23.2998 7.59375V8.12207H22.2812V7.4502C22.2812 6.85959 22.1078 6.32895 21.7168 5.94727C21.3274 5.56724 20.7895 5.40137 20.1924 5.40137H14.2158C13.6191 5.40143 13.0795 5.5665 12.6875 5.94434C12.2928 6.3249 12.1143 6.85642 12.1143 7.4502V8.12207H11.0967V7.59375C11.0967 6.46703 11.4204 5.71715 11.9258 5.24414C12.4371 4.76573 13.2091 4.5 14.2422 4.5ZM13.1143 9.12207H21.2812V10.2061H13.1143V9.12207ZM24.2998 9.12207H28.2529C29.5274 9.12213 30.3832 9.43038 30.9238 9.96289C31.4631 10.4943 31.7764 11.3356 31.7764 12.5938V25.2627C31.7764 26.5208 31.4631 27.3622 30.9238 27.8936C30.3832 28.4262 29.5275 28.7343 28.2529 28.7344H6.15625C4.8887 28.7344 4.03196 28.4269 3.48926 27.8936C2.94818 27.3617 2.63281 26.5196 2.63281 25.2627V12.5938C2.63281 11.3369 2.94822 10.4958 3.48926 9.96387C4.03195 9.4304 4.8885 9.12207 6.15625 9.12207H10.0967V10.2061H6.18262C5.4626 10.2061 4.82556 10.3938 4.37207 10.8516C3.91939 11.3087 3.72949 11.9546 3.72949 12.6982V25.1592C3.72956 25.9079 3.91899 26.5544 4.37305 27.0107C4.82759 27.4674 5.4651 27.6514 6.18262 27.6514H28.2266C28.9442 27.6514 29.5816 27.4675 30.0361 27.0107C30.4902 26.5544 30.6796 25.9079 30.6797 25.1592V12.6982C30.6797 11.9546 30.4898 11.3087 30.0371 10.8516C29.5836 10.3937 28.9466 10.2061 28.2266 10.2061H24.2998V9.12207Z" fill="#2545FF" stroke="#2545FF"/>
<path d="M11.1436 20.0805C11.1436 20.7446 11.5993 21.2004 12.2634 21.2004H14.9196V23.8436C14.9196 24.5337 15.3623 24.9764 16.0394 24.9764H18.3701C19.0471 24.9764 19.4899 24.5337 19.4899 23.8436V21.2004H22.1462C22.8233 21.2004 23.279 20.7446 23.279 20.0805V17.7498C23.279 17.0728 22.8233 16.617 22.1462 16.617H19.4899V13.9868C19.4899 13.2967 19.0471 12.854 18.3701 12.854H16.0394C15.3623 12.854 14.9196 13.2967 14.9196 13.9868V16.617H12.2634C11.5863 16.617 11.1436 17.0728 11.1436 17.7498V20.0805Z" fill="black" fill-opacity="0.85"/>
</g>
<defs>
<clipPath id="clip0_837_2361">
<rect width="32" height="32" fill="white" transform="translate(0.799805)"/>
</clipPath>
</defs>
</svg>
