<svg width="32" height="32" viewBox="0 0 32 32" fill="none" xmlns="http://www.w3.org/2000/svg">
<mask id="path-1-inside-1_752_3310" fill="white">
<path fill-rule="evenodd" clip-rule="evenodd" d="M16.7909 31.0103L16.7762 31.0129L16.6816 31.0596L16.6549 31.0649L16.6362 31.0596L16.5416 31.0129C16.5273 31.0085 16.5167 31.0107 16.5096 31.0196L16.5042 31.0329L16.4816 31.6036L16.4882 31.6303L16.5016 31.6476L16.6402 31.7463L16.6602 31.7516L16.6762 31.7463L16.8149 31.6476L16.8309 31.6263L16.8362 31.6036L16.8136 31.0343C16.81 31.02 16.8025 31.012 16.7909 31.0103ZM17.1442 30.8596L17.1269 30.8623L16.8802 30.9863L16.8669 30.9996L16.8629 31.0143L16.8869 31.5876L16.8936 31.6036L16.9042 31.6129L17.1722 31.7369C17.1891 31.7414 17.202 31.7378 17.2109 31.7263L17.2162 31.7076L17.1709 30.8889C17.1665 30.8729 17.1576 30.8631 17.1442 30.8596ZM16.1909 30.8623C16.185 30.8587 16.178 30.8575 16.1713 30.859C16.1646 30.8605 16.1587 30.8645 16.1549 30.8703L16.1469 30.8889L16.1016 31.7076C16.1025 31.7236 16.11 31.7343 16.1242 31.7396L16.1442 31.7369L16.4122 31.6129L16.4256 31.6023L16.4309 31.5876L16.4536 31.0143L16.4496 30.9983L16.4362 30.9849L16.1909 30.8623Z"/>
</mask>
<path d="M16.7909 31.0103L17.095 29.0335L16.7633 28.9825L16.433 29.0425L16.7909 31.0103ZM16.7762 31.0129L16.4183 29.0452L16.143 29.0953L15.8919 29.219L16.7762 31.0129ZM16.6816 31.0596L17.0738 33.0208L17.3308 32.9694L17.5659 32.8535L16.6816 31.0596ZM16.6549 31.0649L16.1055 32.988L16.5717 33.1212L17.0471 33.0261L16.6549 31.0649ZM16.6362 31.0596L15.7519 32.8535L15.9136 32.9331L16.0868 32.9827L16.6362 31.0596ZM16.5416 31.0129L17.4259 29.219L17.2865 29.1503L17.1381 29.104L16.5416 31.0129ZM16.5096 31.0196L14.9478 29.7702L14.7627 30.0017L14.6526 30.2769L16.5096 31.0196ZM16.5042 31.0329L14.6473 30.2902L14.5195 30.6097L14.5058 30.9535L16.5042 31.0329ZM16.4816 31.6036L14.4831 31.5242L14.4718 31.8106L14.5413 32.0887L16.4816 31.6036ZM16.4882 31.6303L14.5479 32.1153L14.649 32.5195L14.903 32.8497L16.4882 31.6303ZM16.5016 31.6476L14.9163 32.867L15.0985 33.1039L15.3421 33.2772L16.5016 31.6476ZM16.6402 31.7463L15.4807 33.3758L15.7754 33.5855L16.1249 33.6787L16.6402 31.7463ZM16.6602 31.7516L16.1449 33.6841L16.7241 33.8385L17.2926 33.649L16.6602 31.7516ZM16.6762 31.7463L17.3086 33.6436L17.5922 33.5491L17.8357 33.3758L16.6762 31.7463ZM16.8149 31.6476L17.9744 33.2772L18.2281 33.0967L18.4149 32.8476L16.8149 31.6476ZM16.8309 31.6263L18.4309 32.8262L18.6819 32.4915L18.7777 32.0843L16.8309 31.6263ZM16.8362 31.6036L18.7831 32.0616L18.8455 31.7963L18.8346 31.524L16.8362 31.6036ZM16.8136 31.0343L18.812 30.9547L18.8038 30.7489L18.7538 30.5492L16.8136 31.0343ZM17.1442 30.8596L17.6596 28.9271L17.2546 28.8191L16.8403 28.8828L17.1442 30.8596ZM17.1269 30.8623L16.8229 28.8855L16.5108 28.9335L16.2286 29.0753L17.1269 30.8623ZM16.8802 30.9863L15.9819 29.1993L15.6939 29.3441L15.466 29.572L16.8802 30.9863ZM16.8669 30.9996L15.4527 29.5854L15.0771 29.961L14.9373 30.4735L16.8669 30.9996ZM16.8629 31.0143L14.9333 30.4881L14.8517 30.7877L14.8646 31.0979L16.8629 31.0143ZM16.8869 31.5876L14.8886 31.6712L14.9036 32.0276L15.0408 32.3569L16.8869 31.5876ZM16.8936 31.6036L15.0474 32.3729L15.2264 32.8024L15.5766 33.1088L16.8936 31.6036ZM16.9042 31.6129L15.5873 33.1181L15.8036 33.3074L16.0644 33.428L16.9042 31.6129ZM17.1722 31.7369L16.3324 33.552L16.4926 33.6262L16.6632 33.6711L17.1722 31.7369ZM17.2109 31.7263L18.7961 32.9457L19.029 32.6429L19.134 32.2757L17.2109 31.7263ZM17.2162 31.7076L19.1393 32.257L19.2318 31.9332L19.2132 31.597L17.2162 31.7076ZM17.1709 30.8889L19.1678 30.7783L19.1559 30.5622L19.0979 30.3536L17.1709 30.8889ZM16.1909 30.8623L15.1543 32.5727L15.2238 32.6148L15.2965 32.6511L16.1909 30.8623ZM16.1549 30.8703L14.4915 29.7598L14.3892 29.9131L14.3166 30.0824L16.1549 30.8703ZM16.1469 30.8889L14.3086 30.101L14.1695 30.4257L14.15 30.7783L16.1469 30.8889ZM16.1016 31.7076L14.1046 31.597L14.0985 31.7078L14.1046 31.8185L16.1016 31.7076ZM16.1242 31.7396L15.422 33.6123L15.8916 33.7883L16.3887 33.722L16.1242 31.7396ZM16.1442 31.7369L16.4087 33.7194L16.709 33.6793L16.9841 33.5521L16.1442 31.7369ZM16.4122 31.6129L17.2521 33.428L17.4722 33.3262L17.6615 33.1747L16.4122 31.6129ZM16.4256 31.6023L17.6749 33.1641L18.1133 32.8134L18.3052 32.2857L16.4256 31.6023ZM16.4309 31.5876L18.3105 32.2711L18.417 31.9781L18.4293 31.6666L16.4309 31.5876ZM16.4536 31.0143L18.452 31.0933L18.4633 30.807L18.3938 30.5291L16.4536 31.0143ZM16.4496 30.9983L18.3898 30.5131L18.2555 29.9757L17.8638 29.584L16.4496 30.9983ZM16.4362 30.9849L17.8504 29.5707L17.621 29.3412L17.3307 29.1961L16.4362 30.9849ZM16.7909 31.0103L16.433 29.0425L16.4183 29.0452L16.7762 31.0129L17.1341 32.9806L17.1488 32.978L16.7909 31.0103ZM16.7762 31.0129L15.8919 29.219L15.7973 29.2657L16.6816 31.0596L17.5659 32.8535L17.6605 32.8068L16.7762 31.0129ZM16.6816 31.0596L16.2893 29.0984L16.2627 29.1038L16.6549 31.0649L17.0471 33.0261L17.0738 33.0208L16.6816 31.0596ZM16.6549 31.0649L17.2043 29.1419L17.1856 29.1365L16.6362 31.0596L16.0868 32.9827L16.1055 32.988L16.6549 31.0649ZM16.6362 31.0596L17.5205 29.2657L17.4259 29.219L16.5416 31.0129L15.6573 32.8068L15.7519 32.8535L16.6362 31.0596ZM16.5416 31.0129L17.1381 29.104C16.9201 29.0358 16.5542 28.9618 16.1151 29.0533C15.6328 29.1537 15.2279 29.4202 14.9478 29.7702L16.5096 31.0196L18.0713 32.269C17.7984 32.6101 17.4023 32.871 16.9307 32.9692C16.5023 33.0585 16.1488 32.9856 15.945 32.9219L16.5416 31.0129ZM16.5096 31.0196L14.6526 30.2769L14.6473 30.2902L16.5042 31.0329L18.3612 31.7756L18.3665 31.7623L16.5096 31.0196ZM16.5042 31.0329L14.5058 30.9535L14.4831 31.5242L16.4816 31.6036L18.48 31.683L18.5027 31.1123L16.5042 31.0329ZM16.4816 31.6036L14.5413 32.0887L14.5479 32.1153L16.4882 31.6303L18.4285 31.1452L18.4218 31.1185L16.4816 31.6036ZM16.4882 31.6303L14.903 32.8497L14.9163 32.867L16.5016 31.6476L18.0868 30.4282L18.0735 30.4109L16.4882 31.6303ZM16.5016 31.6476L15.3421 33.2772L15.4807 33.3758L16.6402 31.7463L17.7997 30.1167L17.6611 30.018L16.5016 31.6476ZM16.6402 31.7463L16.1249 33.6787L16.1449 33.6841L16.6602 31.7516L17.1755 29.8191L17.1555 29.8138L16.6402 31.7463ZM16.6602 31.7516L17.2926 33.649L17.3086 33.6436L16.6762 31.7463L16.0438 29.8489L16.0278 29.8542L16.6602 31.7516ZM16.6762 31.7463L17.8357 33.3758L17.9744 33.2772L16.8149 31.6476L15.6554 30.018L15.5167 30.1167L16.6762 31.7463ZM16.8149 31.6476L18.4149 32.8476L18.4309 32.8262L16.8309 31.6263L15.2309 30.4263L15.2149 30.4476L16.8149 31.6476ZM16.8309 31.6263L18.7777 32.0843L18.7831 32.0616L16.8362 31.6036L14.8894 31.1456L14.8841 31.1682L16.8309 31.6263ZM16.8362 31.6036L18.8346 31.524L18.812 30.9547L16.8136 31.0343L14.8151 31.1138L14.8378 31.6832L16.8362 31.6036ZM16.8136 31.0343L18.7538 30.5492C18.6955 30.316 18.5641 29.9672 18.2593 29.6444C17.9302 29.2959 17.5111 29.0975 17.095 29.0335L16.7909 31.0103L16.4868 32.987C16.0822 32.9248 15.6727 32.7313 15.3512 32.3908C15.0539 32.076 14.928 31.7383 14.8733 31.5193L16.8136 31.0343ZM17.1442 30.8596L16.8403 28.8828L16.8229 28.8855L17.1269 30.8623L17.4309 32.839L17.4482 32.8364L17.1442 30.8596ZM17.1269 30.8623L16.2286 29.0753L15.9819 29.1993L16.8802 30.9863L17.7785 32.7732L18.0252 32.6492L17.1269 30.8623ZM16.8802 30.9863L15.466 29.572L15.4527 29.5854L16.8669 30.9996L18.2811 32.4138L18.2944 32.4005L16.8802 30.9863ZM16.8669 30.9996L14.9373 30.4735L14.9333 30.4881L16.8629 31.0143L18.7925 31.5404L18.7964 31.5257L16.8669 30.9996ZM16.8629 31.0143L14.8646 31.0979L14.8886 31.6712L16.8869 31.5876L18.8851 31.5039L18.8611 30.9306L16.8629 31.0143ZM16.8869 31.5876L15.0408 32.3569L15.0474 32.3729L16.8936 31.6036L18.7397 30.8343L18.733 30.8183L16.8869 31.5876ZM16.8936 31.6036L15.5766 33.1088L15.5873 33.1181L16.9042 31.6129L18.2212 30.1077L18.2105 30.0984L16.8936 31.6036ZM16.9042 31.6129L16.0644 33.428L16.3324 33.552L17.1722 31.7369L18.0121 29.9218L17.7441 29.7978L16.9042 31.6129ZM17.1722 31.7369L16.6632 33.6711C16.9112 33.7363 17.2907 33.7858 17.7264 33.6656C18.1899 33.5377 18.5522 33.2629 18.7961 32.9457L17.2109 31.7263L15.6256 30.5068C15.8607 30.2012 16.2121 29.9339 16.6628 29.8096C17.0855 29.693 17.4501 29.742 17.6812 29.8028L17.1722 31.7369ZM17.2109 31.7263L19.134 32.2757L19.1393 32.257L17.2162 31.7076L15.2932 31.1582L15.2878 31.1769L17.2109 31.7263ZM17.2162 31.7076L19.2132 31.597L19.1678 30.7783L17.1709 30.8889L15.174 30.9995L15.2193 31.8182L17.2162 31.7076ZM17.1709 30.8889L19.0979 30.3536C18.9491 29.8178 18.507 29.1531 17.6596 28.9271L17.1442 30.8596L16.6289 32.7921C16.2817 32.6995 15.9469 32.5074 15.6811 32.215C15.4282 31.9368 15.3044 31.6421 15.2439 31.4242L17.1709 30.8889ZM16.1909 30.8623L17.2275 29.1518C16.7807 28.8811 16.2469 28.7934 15.7374 28.9067L16.1713 30.859L16.6052 32.8114C16.1091 32.9216 15.5894 32.8363 15.1543 32.5727L16.1909 30.8623ZM16.1713 30.859L15.7374 28.9067C15.2279 29.0199 14.7815 29.3254 14.4915 29.7598L16.1549 30.8703L17.8183 31.9807C17.536 32.4036 17.1013 32.7011 16.6052 32.8114L16.1713 30.859ZM16.1549 30.8703L14.3166 30.0824L14.3086 30.101L16.1469 30.8889L17.9852 31.6768L17.9932 31.6582L16.1549 30.8703ZM16.1469 30.8889L14.15 30.7783L14.1046 31.597L16.1016 31.7076L18.0985 31.8182L18.1438 30.9995L16.1469 30.8889ZM16.1016 31.7076L14.1046 31.8185C14.1212 32.1172 14.2101 32.5084 14.4759 32.8836C14.7466 33.2659 15.1026 33.4925 15.422 33.6123L16.1242 31.7396L16.8265 29.8669C17.1317 29.9814 17.4768 30.2 17.7399 30.5716C17.9982 30.9361 18.0828 31.3139 18.0985 31.5967L16.1016 31.7076ZM16.1242 31.7396L16.3887 33.722L16.4087 33.7194L16.1442 31.7369L15.8798 29.7545L15.8598 29.7572L16.1242 31.7396ZM16.1442 31.7369L16.9841 33.5521L17.2521 33.428L16.4122 31.6129L15.5724 29.7978L15.3044 29.9218L16.1442 31.7369ZM16.4122 31.6129L17.6615 33.1747L17.6749 33.1641L16.4256 31.6023L15.1762 30.0405L15.1629 30.0511L16.4122 31.6129ZM16.4256 31.6023L18.3052 32.2857L18.3105 32.2711L16.4309 31.5876L14.5513 30.9041L14.546 30.9188L16.4256 31.6023ZM16.4309 31.5876L18.4293 31.6666L18.452 31.0933L16.4536 31.0143L14.4551 30.9353L14.4325 31.5086L16.4309 31.5876ZM16.4536 31.0143L18.3938 30.5291L18.3898 30.5131L16.4496 30.9983L14.5093 31.4834L14.5133 31.4994L16.4536 31.0143ZM16.4496 30.9983L17.8638 29.584L17.8504 29.5707L16.4362 30.9849L15.022 32.3991L15.0353 32.4125L16.4496 30.9983ZM16.4362 30.9849L17.3307 29.1961L17.0853 29.0734L16.1909 30.8623L15.2965 32.6511L15.5418 32.7738L16.4362 30.9849Z" fill="#515151" mask="url(#path-1-inside-1_752_3310)"/>
<path fill-rule="evenodd" clip-rule="evenodd" d="M16 2.6665C19.1826 2.6665 22.2348 3.93079 24.4853 6.18122C26.7357 8.43166 28 11.4839 28 14.6665C28 18.7652 25.7653 22.1198 23.4107 24.5265C22.2342 25.7159 20.9506 26.7943 19.576 27.7478L19.008 28.1345L18.7413 28.3118L18.2387 28.6318L17.7907 28.9052L17.236 29.2278C16.8595 29.4427 16.4335 29.5558 16 29.5558C15.5665 29.5558 15.1405 29.4427 14.764 29.2278L14.2093 28.9052L13.516 28.4785L13.26 28.3118L12.7133 27.9478C11.2304 26.9445 9.8492 25.7986 8.58933 24.5265C6.23467 22.1185 4 18.7652 4 14.6665C4 11.4839 5.26428 8.43166 7.51472 6.18122C9.76515 3.93079 12.8174 2.6665 16 2.6665ZM16 5.33317C13.5246 5.33317 11.1507 6.3165 9.40034 8.06684C7.65 9.81718 6.66667 12.1912 6.66667 14.6665C6.66667 17.7625 8.36267 20.4798 10.4947 22.6612C11.4114 23.5892 12.4022 24.4409 13.4573 25.2078L14.068 25.6425C14.2653 25.7803 14.4551 25.9083 14.6373 26.0265L15.1573 26.3598L15.6147 26.6385L16 26.8638L16.6067 26.5052L17.096 26.1985C17.3564 26.0332 17.6351 25.8478 17.932 25.6425L18.5427 25.2078C19.5978 24.4409 20.5886 23.5892 21.5053 22.6612C23.6373 20.4812 25.3333 17.7625 25.3333 14.6665C25.3333 12.1912 24.35 9.81718 22.5997 8.06684C20.8493 6.3165 18.4754 5.33317 16 5.33317ZM16 9.33317C17.4145 9.33317 18.771 9.89507 19.7712 10.8953C20.7714 11.8955 21.3333 13.252 21.3333 14.6665C21.3333 16.081 20.7714 17.4375 19.7712 18.4377C18.771 19.4379 17.4145 19.9998 16 19.9998C14.5855 19.9998 13.229 19.4379 12.2288 18.4377C11.2286 17.4375 10.6667 16.081 10.6667 14.6665C10.6667 13.252 11.2286 11.8955 12.2288 10.8953C13.229 9.89507 14.5855 9.33317 16 9.33317ZM16 11.9998C15.2928 11.9998 14.6145 12.2808 14.1144 12.7809C13.6143 13.281 13.3333 13.9593 13.3333 14.6665C13.3333 15.3737 13.6143 16.052 14.1144 16.5521C14.6145 17.0522 15.2928 17.3332 16 17.3332C16.7072 17.3332 17.3855 17.0522 17.8856 16.5521C18.3857 16.052 18.6667 15.3737 18.6667 14.6665C18.6667 13.9593 18.3857 13.281 17.8856 12.7809C17.3855 12.2808 16.7072 11.9998 16 11.9998Z" fill="#444444"/>
</svg>
