<svg width="40" height="41" viewBox="0 0 40 41" fill="none" xmlns="http://www.w3.org/2000/svg">
<path d="M19.9863 4.6665C21.5175 4.6665 22.768 5.23495 23.6406 6.1792C24.518 7.12868 25.0615 8.51195 25.0615 10.2134V20.4517C25.0615 22.1441 24.5188 23.5278 23.6406 24.48C22.7672 25.4269 21.516 25.9985 19.9863 25.9985C18.4477 25.9985 17.1933 25.4265 16.3184 24.48C15.4386 23.528 14.8956 22.1442 14.8955 20.4517V10.2134C14.8956 8.51213 15.4386 7.12944 16.3174 6.18018C17.1915 5.23608 18.446 4.66659 19.9863 4.6665ZM19.9863 5.42529C18.7258 5.42538 17.624 5.90008 16.8467 6.78174C16.0782 7.65341 15.6866 8.85316 15.6865 10.2134V20.4517C15.6866 21.8119 16.0782 23.0116 16.8467 23.8833C17.624 24.765 18.7258 25.2397 19.9863 25.2397C21.2475 25.2397 22.3465 24.7647 23.1201 23.8813C23.8841 23.0089 24.2704 21.8095 24.2705 20.4517V10.2134C24.2704 8.85556 23.8841 7.6561 23.1201 6.78369C22.3465 5.90037 21.2474 5.42529 19.9863 5.42529ZM19.583 31.6479L18.8193 31.5835C15.9056 31.3387 13.5022 30.1716 11.8281 28.3579C10.1548 26.545 9.16607 24.0389 9.16602 21.0376V17.7329C9.16617 17.5097 9.33046 17.3462 9.55371 17.3462C9.80048 17.3462 9.95688 17.5169 9.95703 17.7329V20.9399C9.95709 23.8988 10.9245 26.429 12.7041 28.2222C14.4845 30.0161 17.0079 31.0014 19.9863 31.0015C22.9575 31.0015 25.4777 30.0161 27.2559 28.2222C29.0331 26.4291 29.9999 23.8988 30 20.9399V17.7329C30.0002 17.524 30.1656 17.3462 30.4033 17.3462C30.6265 17.3462 30.7909 17.5097 30.791 17.7329V21.0376C30.791 24.0396 29.8057 26.5454 28.1348 28.3579C26.4631 30.171 24.06 31.3387 21.1377 31.5835L20.374 31.6479V37.0396H27.2461C27.4691 37.0397 27.6494 37.2205 27.6494 37.4438C27.6492 37.6527 27.4836 37.8304 27.2461 37.8306H12.7109C12.4734 37.8304 12.3078 37.6526 12.3076 37.4438C12.3076 37.2206 12.4878 37.0397 12.7109 37.0396H19.583V31.6479Z" fill="#2545FF" stroke="#2545FF" stroke-width="1.66667"/>
</svg>
