<svg width="33" height="32" viewBox="0 0 33 32" fill="none" xmlns="http://www.w3.org/2000/svg">
<path d="M14.4473 15.5181C16.009 15.5181 17.4264 15.7694 18.6797 16.1948C18.36 16.4074 18.0894 16.6626 17.8643 16.9497C16.8405 16.6536 15.6971 16.4849 14.4473 16.4849C11.3441 16.4849 8.91269 17.5207 7.25098 18.856C5.61678 20.1692 4.66406 21.8311 4.66406 23.1177C4.66412 23.3397 4.72608 23.6186 4.9834 23.8062C5.198 23.9625 5.4586 23.9819 5.64551 23.9819H17.0596V24.1333C17.0596 24.4149 17.0739 24.6861 17.1006 24.9478H6.25781C5.20873 24.9478 4.52918 24.7865 4.12402 24.5239C3.76186 24.2892 3.5674 23.9407 3.56738 23.3647C3.56738 21.8509 4.54034 19.8919 6.42871 18.2935C8.30086 16.7087 11.0322 15.5181 14.4473 15.5181ZM14.4473 1.8335C17.2591 1.8335 19.5721 4.20211 19.5723 7.28369C19.5723 10.4066 17.2319 12.8911 14.4473 12.8911C11.6608 12.8909 9.32227 10.4178 9.32227 7.31006C9.32227 4.25163 11.6643 1.83368 14.4473 1.8335ZM14.4473 2.79932C12.1917 2.79951 10.4189 4.82399 10.4189 7.31006C10.4189 9.82323 12.2072 11.9241 14.4473 11.9243C16.7054 11.9243 18.4766 9.79139 18.4766 7.28369C18.4764 4.78028 16.712 2.79932 14.4473 2.79932Z" fill="#2545FF" stroke="#2545FF"/>
<path d="M25.5928 16.4766C26.3349 16.737 28.7438 17.5965 29.512 17.9089C30.2802 18.2345 30.5666 18.7293 30.5666 19.4845V24.172C30.5666 26.672 29.0953 27.5704 25.5537 29.6537C25.1501 29.8881 24.6553 29.8361 24.3428 29.6537C20.801 27.5704 19.3428 26.672 19.3428 24.172V19.4845C19.3428 18.7293 19.6292 18.2345 20.3974 17.9089C21.1526 17.5965 23.5614 16.7632 24.1996 16.5288C24.6813 16.3334 25.163 16.3334 25.5928 16.4766ZM23.861 26.2162C23.861 26.8282 24.3557 27.323 24.9548 27.323C25.5666 27.323 26.0614 26.8282 26.0614 26.2162C26.0614 25.6304 25.5666 25.1225 24.9548 25.1225C24.3557 25.1225 23.861 25.6304 23.861 26.2162ZM24.0693 19.7449L24.1734 23.4558C24.1865 23.9116 24.499 24.2241 24.9548 24.2241C25.4105 24.2241 25.736 23.9116 25.749 23.4558L25.8532 19.7449C25.8662 19.211 25.5016 18.8465 24.9548 18.8465C24.4209 18.8465 24.0562 19.211 24.0693 19.7449Z" fill="black" fill-opacity="0.85"/>
</svg>
