<svg width="40" height="41" viewBox="0 0 40 41" fill="none" xmlns="http://www.w3.org/2000/svg">
<g clip-path="url(#clip0_747_2305)">
<path d="M25.333 4.43506C26.8685 4.16549 28.007 4.36089 28.8154 4.92041C29.572 5.44405 30.1213 6.34364 30.4023 7.70361L30.4551 7.98096V7.98291L31.126 11.7798H29.541L28.9414 8.38037C28.7852 7.49547 28.4104 6.79747 27.7939 6.36963C27.256 5.99634 26.5954 5.87218 25.875 5.93994L25.5635 5.97998L25.5576 5.98096L4.53027 9.68408L4.52734 9.68506C3.67145 9.84076 2.97302 10.2014 2.54199 10.8188C2.16468 11.3594 2.038 12.0314 2.11621 12.7856L2.16211 13.1138V13.1147L4.68848 27.4263C4.84417 28.3081 5.21347 29.0101 5.82812 29.4409C6.36591 29.8178 7.02799 29.9423 7.75488 29.8687L8.07031 29.8257H8.07129L8.24316 29.7944V31.3813C6.72593 31.6335 5.6054 31.4371 4.80957 30.8862C4.05382 30.363 3.50833 29.4636 3.22754 28.103L3.1748 27.8247L3.17383 27.8228L0.600586 13.2446L0.555664 12.9644C0.357839 11.5881 0.564642 10.556 1.0957 9.80615C1.66311 9.00512 2.66662 8.43146 4.20996 8.15381L4.21094 8.15479L25.333 4.43506Z" fill="#2545FF" stroke="#2545FF" stroke-width="0.96413"/>
<path d="M36.9912 31.7993C36.9912 32.5317 36.7955 33.0072 36.5 33.3013C36.2041 33.5958 35.7359 33.7807 35.042 33.7808H13.6846C12.9814 33.7808 12.514 33.5954 12.2207 33.3022C11.9276 33.0091 11.7344 32.5339 11.7344 31.7993V30.5513L15.1152 27.6118L15.1143 27.6108C15.6469 27.1485 16.1363 26.9614 16.6035 26.9614C17.0744 26.9615 17.5287 27.1107 17.9951 27.4712L18.1953 27.6382L20.7051 29.9126L21.0244 30.2026L21.3477 29.9155L27.6865 24.2993C28.261 23.7931 28.8394 23.5874 29.4863 23.5874C30.1318 23.5874 30.7668 23.8225 31.2891 24.3022V24.3032L36.9912 29.6968V31.7993ZM19.8984 18.0952C21.4653 18.0952 22.7432 19.3987 22.7432 20.9399C22.7432 22.5156 21.4623 23.8159 19.8984 23.8159C18.3376 23.8159 17.0693 22.5186 17.0693 20.9399C17.0693 19.3957 18.3347 18.0952 19.8984 18.0952ZM37.9561 30.6099L38.4043 31.0337V31.8306C38.4043 33.1227 38.0654 34.0103 37.4844 34.5786C36.9011 35.1488 35.9943 35.4751 34.6963 35.4751H13.7002C12.4106 35.4751 11.5028 35.1491 10.917 34.5796C10.3671 34.0448 10.0316 33.2284 9.99512 32.062L10.7695 31.3901V31.7993C10.7696 32.6964 11.0084 33.4533 11.5391 33.9839C12.0697 34.5144 12.8187 34.7446 13.6846 34.7446H35.042C35.9011 34.7445 36.6491 34.514 37.1807 33.9849C37.7128 33.4552 37.956 32.6987 37.9561 31.7993V30.6099ZM39.3682 30.6187L39.2168 30.4761L37.9561 29.2827V17.2681C37.9561 16.3687 37.7122 15.6099 37.1816 15.0767C36.6508 14.5433 35.9034 14.3062 35.042 14.3062H13.6846C12.8163 14.3062 12.0669 14.5419 11.5371 15.0767C11.008 15.6108 10.7695 16.3709 10.7695 17.2681V30.1118L9.20801 31.4692V17.1265C9.20806 15.586 9.59616 14.5147 10.291 13.8247C10.9867 13.134 12.0716 12.7446 13.6377 12.7446H35.0889C36.6462 12.7447 37.7307 13.1335 38.4287 13.8247C39.1259 14.5152 39.5185 15.587 39.5186 17.1265V31.9243C39.5186 33.4639 39.1259 34.5365 38.4287 35.2271C38.0182 35.6334 37.4737 35.934 36.7783 36.1138C37.3098 35.9221 37.7739 35.6438 38.1582 35.2681C38.985 34.4595 39.3681 33.2839 39.3682 31.8306V30.6187Z" fill="#2545FF" stroke="#2545FF" stroke-width="0.96413"/>
</g>
<defs>
<clipPath id="clip0_747_2305">
<rect width="40" height="40" fill="white" transform="translate(0 0.5)"/>
</clipPath>
</defs>
</svg>
