<svg width="32" height="32" viewBox="0 0 32 32" fill="none" xmlns="http://www.w3.org/2000/svg">
<path d="M3.55664 5.76807H23.0625C24.1857 5.76807 24.9454 6.04634 25.4268 6.52295C25.9074 6.99895 26.1846 7.7466 26.1846 8.84521V13.3501C26.0286 13.3278 25.8708 13.3149 25.7129 13.3149C25.551 13.315 25.3899 13.3274 25.2305 13.3501V11.978H1.38867V21.0786C1.38867 21.7409 1.56523 22.3128 1.96973 22.7173C2.37406 23.1214 2.93962 23.2924 3.5791 23.2925H18.1211L17.9277 23.6372C17.8171 23.8296 17.7266 24.035 17.6543 24.2456H3.55664C2.4385 24.2456 1.67811 23.9703 1.19531 23.4956C0.713899 23.0222 0.43457 22.2776 0.43457 21.1802V8.84521C0.43457 7.74781 0.714198 7.00038 1.19629 6.52393C1.67942 6.04657 2.43955 5.7681 3.55664 5.76807ZM5.08594 16.8804H7.86133C8.09757 16.8804 8.25976 16.9571 8.36133 17.0571C8.46247 17.1568 8.53605 17.312 8.53613 17.5327V19.6284C8.53613 19.8421 8.46364 19.9995 8.36035 20.1021C8.25724 20.2042 8.09438 20.2807 7.86133 20.2808H5.08594C4.85287 20.2807 4.69002 20.2043 4.58691 20.1021C4.48363 19.9995 4.41113 19.8421 4.41113 19.6284V17.5327C4.41122 17.312 4.4848 17.1568 4.58594 17.0571C4.6875 16.9571 4.84968 16.8804 5.08594 16.8804ZM3.5791 6.72217C2.93734 6.72223 2.37142 6.89671 1.96777 7.3042C1.56471 7.71111 1.3887 8.28457 1.38867 8.94678V10.2769H25.2305V8.94678C25.2304 8.28048 25.0468 7.7074 24.6416 7.30225C24.2366 6.89744 23.6725 6.72217 23.04 6.72217H3.5791Z" fill="#2545FF" stroke="#2545FF" stroke-width="0.869947"/>
<path d="M26.9929 16.049L31.7957 24.6126C31.9317 24.8504 31.9996 25.0883 31.9996 25.3376C31.9996 26.1871 31.4219 26.8327 30.5044 26.8327H20.9214C20.0153 26.8327 19.4375 26.1871 19.4375 25.3376C19.4375 25.0883 19.5055 24.8504 19.6414 24.6126L24.433 16.049C24.7047 15.5507 25.2145 15.29 25.7242 15.29C26.2114 15.29 26.7097 15.5507 26.9929 16.049ZM24.7841 24.2162C24.7841 24.7258 25.2145 25.1449 25.7129 25.1449C26.234 25.1449 26.6531 24.7258 26.6531 24.2162C26.6644 23.7064 26.234 23.2759 25.7129 23.2759C25.2145 23.2759 24.7841 23.695 24.7841 24.2162ZM24.954 18.711L25.0446 21.86C25.056 22.2338 25.3391 22.5056 25.7129 22.5056C26.098 22.5056 26.3812 22.2338 26.3925 21.86L26.4831 18.711C26.4945 18.2578 26.1774 17.9407 25.7129 17.9407C25.2598 17.9407 24.9426 18.2578 24.954 18.711Z" fill="black" fill-opacity="0.85"/>
</svg>
