<svg width="33" height="32" viewBox="0 0 33 32" fill="none" xmlns="http://www.w3.org/2000/svg">
<path d="M16.5127 4.5C17.4739 4.5 18.4038 4.94713 18.998 5.8457L19.1133 6.03223V6.0332L29.2158 23.6338V23.6348C29.5038 24.1418 29.6592 24.6957 29.6592 25.2109C29.6592 26.0942 29.3633 26.8466 28.8525 27.375C28.3446 27.9005 27.5904 28.2392 26.6045 28.2393H6.42188C5.43588 28.2393 4.68179 27.9005 4.17383 27.375C3.66306 26.8466 3.36719 26.0942 3.36719 25.2109C3.36719 24.7514 3.46959 24.2841 3.69824 23.8359L3.80371 23.6455L3.80859 23.6367L13.9131 6.0332L13.915 6.02832C14.4852 5.01103 15.4844 4.50012 16.5127 4.5ZM16.5127 5.58301C15.8934 5.58311 15.2103 5.8546 14.8291 6.52441L4.73828 24.1162L4.7334 24.124L4.72852 24.1328C4.53936 24.4941 4.47656 24.891 4.47656 25.1982C4.47674 26.2236 5.20457 27.1951 6.43457 27.1953H26.5781C27.7866 27.1953 28.5496 26.2332 28.5498 25.1982C28.5498 24.8713 28.4654 24.4916 28.2842 24.1455L28.2793 24.1377L28.2754 24.1289L18.1836 6.52441C17.8044 5.85837 17.1372 5.58301 16.5127 5.58301Z" fill="#2545FF" stroke="#2545FF"/>
<path d="M16.5127 19.9634C17.1377 19.9634 17.5023 19.5988 17.5153 18.9217L17.6975 12.0597C17.7106 11.3957 17.1898 10.9009 16.4997 10.9009C15.7966 10.9009 15.3018 11.3827 15.3148 12.0467L15.484 18.9217C15.4971 19.5858 15.8616 19.9634 16.5127 19.9634ZM16.5127 24.1952C17.2679 24.1952 17.919 23.5962 17.919 22.841C17.919 22.0728 17.2809 21.4868 16.5127 21.4868C15.7445 21.4868 15.1064 22.0858 15.1064 22.841C15.1064 23.5832 15.7575 24.1952 16.5127 24.1952Z" fill="black" fill-opacity="0.85"/>
</svg>
