<svg width="24" height="28" viewBox="0 0 24 28" fill="none" xmlns="http://www.w3.org/2000/svg">
<path fill-rule="evenodd" clip-rule="evenodd" d="M12 0.666657H4C2.93913 0.666657 1.92172 1.08808 1.17157 1.83823C0.421427 2.58838 0 3.60579 0 4.66666V23.3333C0 24.3942 0.421427 25.4116 1.17157 26.1618C1.92172 26.9119 2.93913 27.3333 4 27.3333H20C21.0609 27.3333 22.0783 26.9119 22.8284 26.1618C23.5786 25.4116 24 24.3942 24 23.3333V12.6667H16C14.9391 12.6667 13.9217 12.2452 13.1716 11.4951C12.4214 10.7449 12 9.72752 12 8.66666V0.666657ZM24 9.99999V9.77066C23.9994 8.71034 23.5779 7.69363 22.828 6.94399L17.724 1.83732C16.9738 1.08761 15.9566 0.666529 14.896 0.666657H14.6667V8.66666C14.6667 9.02028 14.8071 9.35942 15.0572 9.60947C15.3072 9.85951 15.6464 9.99999 16 9.99999H24Z" fill="#2545FF"/>
</svg>
