<svg width="20" height="20" viewBox="0 0 20 20" fill="none" xmlns="http://www.w3.org/2000/svg">
<path d="M8 12H12V10H8V12ZM8 9H16V7H8V9ZM8 6H16V4H8V6ZM6 16C5.45 16 4.97933 15.8043 4.588 15.413C4.19667 15.0217 4.00067 14.5507 4 14V2C4 1.45 4.196 0.979333 4.588 0.588C4.98 0.196667 5.45067 0.000666667 6 0H18C18.55 0 19.021 0.196 19.413 0.588C19.805 0.98 20.0007 1.45067 20 2V14C20 14.55 19.8043 15.021 19.413 15.413C19.0217 15.805 18.5507 16.0007 18 16H6ZM2 20C1.45 20 0.979333 19.8043 0.588 19.413C0.196667 19.0217 0.000666667 18.5507 0 18V4H2V18H16V20H2Z" fill="#6A6A6A"/>
</svg>
