<svg width="24" height="24" viewBox="0 0 24 24" fill="none" xmlns="http://www.w3.org/2000/svg">
<path d="M16 18C16.5667 18 17.0377 17.8333 17.413 17.5C17.7883 17.1666 17.984 16.6666 18 16C18.0167 15.4333 17.8293 14.9583 17.438 14.575C17.0467 14.1916 16.5673 14 16 14C15.4327 14 14.9577 14.1916 14.575 14.575C14.1923 14.9583 14.0007 15.4333 14 16C13.9993 16.5666 14.191 17.0416 14.575 17.425C14.959 17.8083 15.434 18 16 18ZM16 20C14.9 20 13.9583 19.6083 13.175 18.825C12.3917 18.0416 12 17.1 12 16C12 14.9 12.3917 13.9583 13.175 13.175C13.9583 12.3916 14.9 12 16 12C17.1 12 18.0417 12.3916 18.825 13.175C19.6083 13.9583 20 14.9 20 16C20 16.3833 19.9543 16.746 19.863 17.088C19.7717 17.43 19.634 17.7506 19.45 18.05L21.3 19.9C21.4833 20.0833 21.575 20.3166 21.575 20.6C21.575 20.8833 21.4833 21.1166 21.3 21.3C21.1167 21.4833 20.8833 21.575 20.6 21.575C20.3167 21.575 20.0833 21.4833 19.9 21.3L18.05 19.45C17.75 19.6333 17.4293 19.771 17.088 19.863C16.7467 19.955 16.384 20.0006 16 20ZM4.35 20.7C4.01667 20.8333 3.70833 20.796 3.425 20.588C3.14167 20.38 3 20.1006 3 19.75V5.74998C3 5.53331 3.06267 5.34164 3.188 5.17498C3.31333 5.00831 3.484 4.88331 3.7 4.79998L8.35 3.22498C8.56667 3.14164 8.78333 3.09998 9 3.09998C9.21667 3.09998 9.43333 3.14164 9.65 3.22498L15 5.09998L19.65 3.29998C19.9833 3.16664 20.2917 3.20431 20.575 3.41298C20.8583 3.62164 21 3.90064 21 4.24998V11C21 11.2833 20.8667 11.475 20.6 11.575C20.3333 11.675 20.0917 11.625 19.875 11.425C19.325 10.9583 18.721 10.604 18.063 10.362C17.405 10.12 16.7173 9.99931 16 9.99998H15.575C15.425 9.99998 15.2833 10.0166 15.15 10.05C14.85 10.0833 14.5833 10.0123 14.35 9.83698C14.1167 9.66164 14 9.43264 14 9.14998V6.84998L10 5.44998V17.475C10 17.7916 9.91267 18.075 9.738 18.325C9.56333 18.575 9.334 18.7583 9.05 18.875L4.35 20.7Z" fill="#6A6A6A"/>
</svg>
