<svg width="28" height="28" viewBox="0 0 28 28" fill="none" xmlns="http://www.w3.org/2000/svg">
<path d="M25.8549 0.674687L25.9962 0.666687L26.1696 0.677354L26.2896 0.698687L26.4536 0.745354L26.5962 0.806687L26.7296 0.882687L26.8496 0.97202L26.9589 1.07202L27.0282 1.15069L27.1376 1.30535L27.2069 1.43335C27.2691 1.56669 27.3091 1.70713 27.3269 1.85469L27.3336 1.99602C27.3336 2.09646 27.3229 2.19424 27.3016 2.28935L27.2549 2.45335L18.5456 26.556C18.3805 26.9154 18.1157 27.2199 17.7827 27.4334C17.4497 27.6468 17.0624 27.7601 16.6669 27.76C16.3107 27.7608 15.9605 27.6694 15.65 27.4949C15.3395 27.3204 15.0794 27.0687 14.8949 26.764L14.8082 26.5947L10.3389 17.6587L1.44557 13.2107C1.1165 13.0602 0.832718 12.8259 0.622598 12.5313C0.412478 12.2368 0.283386 11.8922 0.248234 11.532L0.240234 11.3334C0.240234 10.5867 0.641568 9.90402 1.36157 9.50669L1.54823 9.41335L25.5709 0.738687L25.7122 0.698687L25.8549 0.674687Z" fill="#2545FF"/>
</svg>
