<svg width="22" height="21" viewBox="0 0 22 21" fill="none" xmlns="http://www.w3.org/2000/svg">
<path d="M19.1667 21C19.8083 21 20.3574 20.7717 20.814 20.3152C21.2706 19.8586 21.4992 19.3091 21.5 18.6667V2.33333C21.5 1.69167 21.2713 1.14256 20.814 0.686C20.3567 0.229444 19.8076 0.000777778 19.1667 0H2.83333C2.19167 0 1.64217 0.228667 1.18483 0.686C0.727501 1.14333 0.499224 1.69244 0.5 2.33333V18.6667C0.5 19.3083 0.728279 19.8578 1.18483 20.3152C1.64139 20.7725 2.19089 21.0008 2.83333 21H19.1667ZM11 18.6667H2.83333V2.33333H11V18.6667Z" fill="#6A6A6A"/>
</svg>
