<svg width="25" height="24" viewBox="0 0 25 24" fill="none" xmlns="http://www.w3.org/2000/svg">
<path fill-rule="evenodd" clip-rule="evenodd" d="M4.49995 12.9997L19.5 12.9999C20.0523 12.9999 20.5 12.5522 20.5 11.9999C20.5 11.4477 20.0523 10.9999 19.5 10.9999L4.49998 10.9997C3.9477 10.9997 3.49998 11.4474 3.49997 11.9997C3.49996 12.5519 3.94767 12.9997 4.49995 12.9997Z" fill="white"/>
<path d="M14.7781 6.30806C14.3959 6.70676 14.4093 7.33978 14.808 7.72196L19.271 12.0001L14.808 16.2782C14.4093 16.6603 14.3959 17.2934 14.7781 17.6921C15.1603 18.0908 15.7933 18.1041 16.192 17.722L20.6994 13.4013C20.847 13.26 21.0218 13.0926 21.152 12.929C21.3077 12.7335 21.5 12.4234 21.5 12.0001C21.5 11.5767 21.3077 11.2667 21.152 11.0711C21.0218 10.9075 20.847 10.7401 20.6994 10.5988L16.192 6.27816C15.7933 5.89598 15.1603 5.90937 14.7781 6.30806Z" fill="white"/>
</svg>
