<svg width="24" height="24" viewBox="0 0 24 24" fill="none" xmlns="http://www.w3.org/2000/svg">
<path fill-rule="evenodd" clip-rule="evenodd" d="M8.36775e-09 9.90513C8.36775e-09 8.26456 1.332 6.93256 2.97429 6.93256H4.43657C5.09386 6.93142 5.73527 7.13453 6.2721 7.51381C6.80892 7.89309 7.21464 8.42979 7.43314 9.0497C7.48942 9.20898 7.51378 9.37778 7.50483 9.54647C7.49587 9.71515 7.45378 9.88043 7.38095 10.0328C7.30812 10.1853 7.20599 10.3219 7.08038 10.4348C6.95476 10.5478 6.80813 10.6349 6.64886 10.6911C6.32719 10.8048 5.97354 10.786 5.66571 10.6389C5.51329 10.5661 5.37671 10.464 5.26376 10.3384C5.15081 10.2128 5.06371 10.0661 5.00743 9.90685C4.96626 9.78849 4.88907 9.686 4.78669 9.61375C4.68431 9.5415 4.56188 9.50312 4.43657 9.50399H2.97429C2.87572 9.50512 2.78098 9.54235 2.70802 9.60863C2.63506 9.67492 2.58893 9.76565 2.57837 9.86366C2.56781 9.96167 2.59355 10.0601 2.65071 10.1404C2.70788 10.2208 2.79251 10.2773 2.88857 10.2994L5.11714 10.7863C5.884 10.9524 6.56224 11.3964 7.02119 12.0328C7.48014 12.6692 7.68731 13.453 7.60279 14.233C7.51827 15.0131 7.14803 15.7343 6.56342 16.2576C5.97881 16.781 5.2212 17.0694 4.43657 17.0674H3.17657C2.51937 17.0681 1.87819 16.8646 1.34168 16.485C0.80517 16.1054 0.399836 15.5685 0.181714 14.9486C0.122207 14.7887 0.0951204 14.6185 0.102033 14.448C0.108945 14.2776 0.149719 14.1102 0.221977 13.9556C0.294235 13.8011 0.396532 13.6624 0.522907 13.5478C0.649282 13.4332 0.797208 13.3448 0.958063 13.288C1.11892 13.2311 1.28948 13.2068 1.45982 13.2165C1.63016 13.2262 1.79687 13.2697 1.95022 13.3445C2.10357 13.4193 2.24051 13.5238 2.35305 13.6521C2.46559 13.7803 2.55148 13.9297 2.60571 14.0914C2.68971 14.3297 2.91429 14.496 3.17657 14.496H4.43657C4.58759 14.4987 4.73416 14.4448 4.84748 14.345C4.96081 14.2451 5.0327 14.1065 5.04902 13.9564C5.06535 13.8062 5.02493 13.6554 4.93571 13.5335C4.8465 13.4116 4.71493 13.3275 4.56686 13.2977L2.33829 12.8108C1.67559 12.6658 1.0824 12.2985 0.657103 11.77C0.231802 11.2415 -5.08575e-05 10.5835 8.36775e-09 9.90513ZM16.3869 9.90513C16.3869 8.26456 17.7171 6.93256 19.3594 6.93256H20.8234C21.4804 6.93177 22.1215 7.13505 22.6579 7.51431C23.1944 7.89356 23.5999 8.43007 23.8183 9.0497C23.8778 9.2096 23.9049 9.37975 23.898 9.55023C23.8911 9.7207 23.8503 9.8881 23.778 10.0427C23.7058 10.1972 23.6035 10.3358 23.4771 10.4505C23.3507 10.5651 23.2028 10.6534 23.0419 10.7103C22.8811 10.7672 22.7105 10.7915 22.5402 10.7818C22.3698 10.7721 22.2031 10.7286 22.0498 10.6538C21.8964 10.579 21.7595 10.4744 21.647 10.3462C21.5344 10.218 21.4485 10.0686 21.3943 9.90685C21.3531 9.78849 21.2759 9.686 21.1735 9.61375C21.0712 9.5415 20.9487 9.50312 20.8234 9.50399H19.3594C19.2609 9.50512 19.1661 9.54235 19.0932 9.60863C19.0202 9.67492 18.9741 9.76565 18.9635 9.86366C18.953 9.96167 18.9787 10.0601 19.0359 10.1404C19.093 10.2208 19.1777 10.2773 19.2737 10.2994L21.5023 10.7863C22.269 10.9523 22.9471 11.3962 23.4061 12.0325C23.865 12.6687 24.0723 13.4522 23.988 14.2322C23.9037 15.0121 23.5338 15.7333 22.9495 16.2568C22.3652 16.7802 21.6079 17.069 20.8234 17.0674H19.5617C18.9048 17.0677 18.264 16.864 17.7278 16.4845C17.1917 16.1049 16.7866 15.5682 16.5686 14.9486C16.4549 14.6269 16.4737 14.2732 16.6208 13.9654C16.7678 13.6576 17.0312 13.4208 17.3529 13.3071C17.6745 13.1935 18.0282 13.2122 18.336 13.3593C18.6438 13.5064 18.8806 13.7697 18.9943 14.0914C19.0766 14.3297 19.3029 14.496 19.5634 14.496H20.8251C20.976 14.4982 21.1222 14.444 21.2352 14.3441C21.3482 14.2441 21.4197 14.1055 21.4358 13.9555C21.4519 13.8055 21.4114 13.6549 21.3222 13.5332C21.233 13.4115 21.1016 13.3275 20.9537 13.2977L18.7251 12.8108C18.0628 12.6654 17.47 12.2981 17.045 11.7696C16.62 11.2411 16.3884 10.5833 16.3886 9.90513H16.3869ZM10.764 10.1091C10.764 9.77485 11.0349 9.50399 11.3691 9.50399H12.6309C12.9634 9.50399 13.2343 9.77485 13.2343 10.1091V13.8908C13.2343 14.051 13.1708 14.2047 13.0577 14.3181C12.9445 14.4316 12.7911 14.4955 12.6309 14.496H11.3691C11.2086 14.496 11.0547 14.4322 10.9412 14.3187C10.8278 14.2053 10.764 14.0513 10.764 13.8908V10.1091ZM11.3691 6.93256C9.61543 6.93256 8.19257 8.35542 8.19257 10.1091V13.8908C8.19257 15.6446 9.61543 17.0674 11.3691 17.0674H12.6309C14.3846 17.0674 15.8057 15.6446 15.8057 13.8908V10.1091C15.8057 8.35542 14.3829 6.93256 12.6309 6.93256H11.3691Z" fill="#444444"/>
</svg>
