<svg width="24" height="24" viewBox="0 0 24 24" fill="none" xmlns="http://www.w3.org/2000/svg">
<path d="M11.001 10H13.001V15H11.001V10ZM11 16H13V18H11V16Z" fill="#444444"/>
<path d="M13.7683 4.2C13.4203 3.545 12.7423 3.138 12.0003 3.138C11.2583 3.138 10.5803 3.545 10.2323 4.201L2.89432 18.064C2.73188 18.3685 2.65144 18.7101 2.66091 19.0551C2.67037 19.4002 2.76942 19.7368 2.94832 20.032C3.12472 20.3287 3.3756 20.574 3.67607 20.7438C3.97655 20.9136 4.31619 21.0019 4.66132 21H19.3393C20.0473 21 20.6883 20.638 21.0533 20.032C21.2322 19.7368 21.3313 19.4002 21.3407 19.0551C21.3502 18.7101 21.2698 18.3685 21.1073 18.064L13.7683 4.2ZM4.66132 19L12.0003 5.137L19.3443 19H4.66132Z" fill="#444444"/>
</svg>
