<svg width="516" height="29" viewBox="0 0 516 29" fill="none" xmlns="http://www.w3.org/2000/svg">
<path d="M0.362305 13.5522L18.0572 20.4309C23.4543 22.5289 29.5878 20.4606 32.6272 15.5319C35.7903 10.4025 42.2754 8.40092 47.7714 10.8725L58.4194 15.661C62.3884 17.4459 67.0126 16.9421 70.5041 14.3444L85.8844 2.90142C90.6832 -0.668862 97.5429 0.967371 100.213 6.3193L102.091 10.0831C104.148 14.2052 109.672 15.038 112.853 11.7056C115.513 8.91864 119.977 8.96827 122.575 11.8137L127.68 17.4062C131.276 21.3447 137.039 22.4379 141.827 20.0896L150.738 15.719C153.569 14.3306 156.833 14.1121 159.823 15.1107L179.904 21.8162C184.037 23.1963 188.593 22.2276 191.807 19.2854L208.268 4.21726C213.775 -0.824197 222.592 0.923108 225.76 7.68388L227.722 11.8686C230.333 17.4409 237.91 18.2861 241.685 13.4262C245.755 8.18689 254.032 9.66239 256.041 15.9852L256.459 17.3023C258.302 23.1036 265.268 25.4202 270.218 21.878L274.125 19.0827C278.41 16.0166 284.363 16.9636 287.485 21.2079C290.662 25.5259 296.753 26.4189 301.035 23.1944L320.396 8.61546C325.358 4.87878 332.522 7.06305 334.555 12.9327C336.509 18.5733 343.251 20.8657 348.238 17.5852L349.694 16.6272C352.617 14.7049 356.304 14.3621 359.531 15.7128L377.23 23.1216C378.697 23.7359 380.272 24.0522 381.863 24.0522H389.184C392.834 24.0522 396.286 22.3908 398.563 19.5379L400.407 17.2267C404.477 12.1274 411.875 11.2141 417.063 15.1706L424.325 20.7089C426.981 22.7346 430.593 22.9702 433.49 21.3067C436.394 19.6387 440.017 19.8805 442.674 21.9197L446.601 24.9334C449.672 27.29 454.014 27.0045 456.75 24.266C459.859 21.1542 464.937 21.2695 467.901 24.5193L468.171 24.8156C472.239 29.2753 479.581 27.8726 481.719 22.2274L482.899 19.1096C485.1 13.2963 491.966 10.8137 497.376 13.8749L515.362 24.0522" stroke="#2545FF" stroke-width="2"/>
</svg>
