<svg width="142" height="38" viewBox="0 0 142 38" fill="none" xmlns="http://www.w3.org/2000/svg">
<path d="M30.8401 5.14375C29.2145 4.55989 25.588 3.0919 24.0875 1.89082C19.8983 5.14375 12.2203 6.29479 9.01908 6.14465C8.93571 9.14736 9.0816 15.7283 10.3321 18.0304H18.2102L20.1174 14.6069C20.1967 14.4645 20.409 14.4912 20.4506 14.6488L23.3026 25.459C23.355 25.6576 23.6452 25.6293 23.6583 25.4243L24.6321 10.1606C24.6454 9.95165 24.9437 9.92823 24.9895 10.1325L27.0228 19.2092C27.0618 19.383 27.302 19.402 27.3678 19.2364L28.8243 15.5681C28.8805 15.4266 29.0757 15.4134 29.1504 15.5462L30.0379 17.1248C30.07 17.1818 30.1303 17.2171 30.1957 17.2171H33.4661H37.5022C37.7384 17.2171 37.9106 17.4424 37.8493 17.6705C34.8592 28.785 27.2065 34.5867 23.5873 36.1092C19.4607 34.3576 13.5642 28.6024 11.626 22.9723" stroke="white" stroke-width="1.8105" stroke-linecap="round"/>
<circle cx="35.1616" cy="6.50757" r="1.90102" fill="white"/>
<path d="M51.6363 26.6664C50.5271 26.6664 49.4665 26.5 48.4543 26.1672C47.4422 25.8206 46.6449 25.3769 46.0626 24.8362L46.8321 23.214C47.3867 23.6993 48.0938 24.1014 48.9534 24.4203C49.8131 24.7391 50.7074 24.8986 51.6363 24.8986C52.4821 24.8986 53.1684 24.8015 53.6953 24.6074C54.2221 24.4133 54.6104 24.1499 54.8599 23.8171C55.1095 23.4705 55.2343 23.0823 55.2343 22.6525C55.2343 22.1533 55.0679 21.7512 54.7352 21.4462C54.4163 21.1412 53.9934 20.8985 53.4665 20.7183C52.9535 20.5242 52.385 20.3578 51.7611 20.2192C51.1372 20.0805 50.5063 19.9211 49.8685 19.7408C49.2446 19.5467 48.6692 19.3041 48.1423 19.0129C47.6293 18.7217 47.2134 18.3335 46.8945 17.8482C46.5756 17.3491 46.4162 16.7113 46.4162 15.9349C46.4162 15.1862 46.6103 14.4998 46.9985 13.8759C47.4006 13.2381 48.0106 12.7321 48.8287 12.3577C49.6606 11.9695 50.7143 11.7754 51.9899 11.7754C52.8356 11.7754 53.6745 11.8863 54.5064 12.1081C55.3383 12.33 56.0593 12.6489 56.6693 13.0648L55.983 14.7286C55.3591 14.3127 54.7005 14.0146 54.0072 13.8343C53.314 13.6402 52.6415 13.5432 51.9899 13.5432C51.1718 13.5432 50.4994 13.6472 49.9725 13.8551C49.4457 14.0631 49.0574 14.3404 48.8079 14.687C48.5722 15.0337 48.4543 15.4219 48.4543 15.8517C48.4543 16.3647 48.6138 16.7737 48.9327 17.0787C49.2654 17.3838 49.6883 17.6264 50.2013 17.8066C50.7282 17.9869 51.3036 18.1533 51.9275 18.3058C52.5514 18.4444 53.1753 18.6039 53.7993 18.7841C54.4371 18.9644 55.0125 19.2001 55.5255 19.4912C56.0523 19.7824 56.4752 20.1706 56.7941 20.6559C57.113 21.1412 57.2724 21.7651 57.2724 22.5277C57.2724 23.2625 57.0714 23.9488 56.6693 24.5866C56.2672 25.2106 55.6433 25.7166 54.7975 26.1048C53.9656 26.4792 52.9119 26.6664 51.6363 26.6664ZM64.9279 26.6248C63.7493 26.6248 62.7095 26.3821 61.8082 25.8969C60.9209 25.4116 60.2276 24.7461 59.7285 23.9003C59.2432 23.0545 59.0006 22.084 59.0006 20.9887C59.0006 19.8933 59.2363 18.9228 59.7077 18.077C60.193 17.2313 60.8516 16.5727 61.6835 16.1013C62.5292 15.616 63.479 15.3733 64.5327 15.3733C65.6003 15.3733 66.5431 15.609 67.3612 16.0805C68.1792 16.5519 68.817 17.2174 69.2745 18.077C69.746 18.9228 69.9817 19.9141 69.9817 21.0511C69.9817 21.1342 69.9747 21.2313 69.9609 21.3422C69.9609 21.4531 69.9539 21.5571 69.9401 21.6542H60.5604V20.2192H68.9002L68.0891 20.7183C68.103 20.0112 67.9574 19.3803 67.6523 18.8257C67.3473 18.2711 66.9244 17.8413 66.3837 17.5363C65.8568 17.2174 65.2398 17.0579 64.5327 17.0579C63.8395 17.0579 63.2225 17.2174 62.6817 17.5363C62.141 17.8413 61.7181 18.2781 61.4131 18.8465C61.1081 19.4011 60.9555 20.0389 60.9555 20.7599V21.0927C60.9555 21.8275 61.1219 22.4861 61.4547 23.0684C61.8013 23.6369 62.2797 24.0806 62.8897 24.3995C63.4998 24.7183 64.2 24.8778 64.9903 24.8778C65.6419 24.8778 66.2312 24.7669 66.758 24.545C67.2988 24.3232 67.7702 23.9904 68.1723 23.5468L69.2745 24.8362C68.7754 25.4185 68.1515 25.8622 67.4028 26.1672C66.6679 26.4723 65.843 26.6248 64.9279 26.6248ZM78.6398 15.3733C79.541 15.3733 80.3313 15.5467 81.0107 15.8933C81.7039 16.2399 82.2447 16.7668 82.6329 17.4739C83.0211 18.181 83.2152 19.0753 83.2152 20.1568V26.5H81.2186V20.3855C81.2186 19.3179 80.9552 18.5138 80.4283 17.973C79.9153 17.4323 79.1874 17.1619 78.2446 17.1619C77.5375 17.1619 76.9205 17.3006 76.3936 17.5779C75.8668 17.8552 75.4577 18.2642 75.1666 18.8049C74.8893 19.3457 74.7506 20.0181 74.7506 20.8223V26.5H72.7541V15.4773H74.6674V18.4514L74.3555 17.6611C74.716 16.9401 75.2706 16.3786 76.0193 15.9765C76.768 15.5744 77.6415 15.3733 78.6398 15.3733ZM90.6953 26.6248C89.5861 26.6248 88.7265 26.3267 88.1164 25.7305C87.5064 25.1343 87.2013 24.2816 87.2013 23.1724V13.0648H89.1979V23.0892C89.1979 23.6854 89.3435 24.143 89.6346 24.4618C89.9397 24.7807 90.3695 24.9402 90.9241 24.9402C91.548 24.9402 92.0679 24.7669 92.4839 24.4203L93.1078 25.8553C92.8028 26.1187 92.4354 26.3128 92.0056 26.4376C91.5896 26.5624 91.1529 26.6248 90.6953 26.6248ZM85.3296 17.1203V15.4773H92.3591V17.1203H85.3296ZM95.5216 26.5V15.4773H97.5182V26.5H95.5216ZM96.5199 13.356C96.1317 13.356 95.8059 13.2312 95.5424 12.9816C95.2929 12.7321 95.1681 12.427 95.1681 12.0665C95.1681 11.6922 95.2929 11.3802 95.5424 11.1307C95.8059 10.8811 96.1317 10.7563 96.5199 10.7563C96.9081 10.7563 97.227 10.8811 97.4766 11.1307C97.74 11.3664 97.8717 11.6645 97.8717 12.0249C97.8717 12.3993 97.747 12.7182 97.4974 12.9816C97.2478 13.2312 96.922 13.356 96.5199 13.356ZM107.216 15.3733C108.117 15.3733 108.908 15.5467 109.587 15.8933C110.28 16.2399 110.821 16.7668 111.209 17.4739C111.597 18.181 111.791 19.0753 111.791 20.1568V26.5H109.795V20.3855C109.795 19.3179 109.531 18.5138 109.005 17.973C108.492 17.4323 107.764 17.1619 106.821 17.1619C106.114 17.1619 105.497 17.3006 104.97 17.5779C104.443 17.8552 104.034 18.2642 103.743 18.8049C103.466 19.3457 103.327 20.0181 103.327 20.8223V26.5H101.33V15.4773H103.244V18.4514L102.932 17.6611C103.292 16.9401 103.847 16.3786 104.596 15.9765C105.344 15.5744 106.218 15.3733 107.216 15.3733ZM120.395 26.6248C119.216 26.6248 118.176 26.3821 117.275 25.8969C116.388 25.4116 115.694 24.7461 115.195 23.9003C114.71 23.0545 114.467 22.084 114.467 20.9887C114.467 19.8933 114.703 18.9228 115.174 18.077C115.66 17.2313 116.318 16.5727 117.15 16.1013C117.996 15.616 118.946 15.3733 119.999 15.3733C121.067 15.3733 122.01 15.609 122.828 16.0805C123.646 16.5519 124.284 17.2174 124.741 18.077C125.213 18.9228 125.448 19.9141 125.448 21.0511C125.448 21.1342 125.441 21.2313 125.428 21.3422C125.428 21.4531 125.421 21.5571 125.407 21.6542H116.027V20.2192H124.367L123.556 20.7183C123.57 20.0112 123.424 19.3803 123.119 18.8257C122.814 18.2711 122.391 17.8413 121.85 17.5363C121.324 17.2174 120.707 17.0579 119.999 17.0579C119.306 17.0579 118.689 17.2174 118.148 17.5363C117.608 17.8413 117.185 18.2781 116.88 18.8465C116.575 19.4011 116.422 20.0389 116.422 20.7599V21.0927C116.422 21.8275 116.589 22.4861 116.921 23.0684C117.268 23.6369 117.746 24.0806 118.356 24.3995C118.967 24.7183 119.667 24.8778 120.457 24.8778C121.109 24.8778 121.698 24.7669 122.225 24.545C122.766 24.3232 123.237 23.9904 123.639 23.5468L124.741 24.8362C124.242 25.4185 123.618 25.8622 122.87 26.1672C122.135 26.4723 121.31 26.6248 120.395 26.6248ZM128.221 26.5V11.0683H130.217V26.5H128.221Z" fill="white"/>
</svg>
