<svg width="42" height="49" viewBox="0 0 42 49" fill="none" xmlns="http://www.w3.org/2000/svg">
<path d="M31.1202 6.02501C28.9527 5.24653 24.1175 3.2892 22.1167 1.68776C16.5312 6.02501 6.29385 7.55972 2.02552 7.35954C1.91437 11.3632 2.10889 20.1377 3.7762 23.2072H14.2803L16.8232 18.6425C16.929 18.4527 17.2121 18.4883 17.2675 18.6984L21.0702 33.112C21.14 33.3768 21.5271 33.339 21.5445 33.0657L22.8429 12.7141C22.8606 12.4355 23.2583 12.4043 23.3193 12.6767L26.0305 24.7789C26.0825 25.0107 26.4028 25.036 26.4904 24.8152L28.4325 19.9242C28.5074 19.7354 28.7677 19.7179 28.8672 19.8949L30.0506 21.9998C30.0934 22.0758 30.1738 22.1229 30.261 22.1229H34.6216H40.003C40.3179 22.1229 40.5476 22.4232 40.4658 22.7273C36.4791 37.5466 26.2754 45.2823 21.4498 47.3122C15.9476 44.9768 8.08571 37.3032 5.50137 29.7964" stroke="white" stroke-width="2.41399" stroke-linecap="round"/>
<circle cx="36.8821" cy="7.84344" r="2.53469" fill="white"/>
</svg>
