<svg width="189" height="49" viewBox="0 0 189 49" fill="none" xmlns="http://www.w3.org/2000/svg">
<path d="M41.1202 6.02501C38.9527 5.24653 34.1175 3.2892 32.1167 1.68776C26.5312 6.02501 16.2939 7.55972 12.0255 7.35954C11.9144 11.3632 12.1089 20.1377 13.7762 23.2072H24.2803L26.8232 18.6425C26.929 18.4527 27.2121 18.4883 27.2675 18.6984L31.0702 33.112C31.14 33.3768 31.5271 33.339 31.5445 33.0657L32.8429 12.7141C32.8606 12.4355 33.2583 12.4043 33.3193 12.6767L36.0305 24.7789C36.0825 25.0107 36.4028 25.036 36.4904 24.8152L38.4325 19.9242C38.5074 19.7354 38.7677 19.7179 38.8672 19.8949L40.0506 21.9998C40.0934 22.0758 40.1738 22.1229 40.261 22.1229H44.6216H50.003C50.3179 22.1229 50.5476 22.4232 50.4658 22.7273C46.4791 37.5466 36.2754 45.2823 31.4498 47.3122C25.9476 44.9768 18.0857 37.3032 15.5014 29.7964" stroke="white" stroke-width="2.41399" stroke-linecap="round"/>
<circle cx="46.8821" cy="7.84344" r="2.53469" fill="white"/>
<path d="M68.8484 34.7218C67.3694 34.7218 65.9552 34.5 64.6057 34.0563C63.2561 33.5942 62.1932 33.0026 61.4167 32.2816L62.4427 30.1187C63.1822 30.7657 64.125 31.3018 65.2712 31.727C66.4174 32.1522 67.6097 32.3648 68.8484 32.3648C69.976 32.3648 70.8911 32.2354 71.5936 31.9766C72.2961 31.7178 72.8137 31.3665 73.1465 30.9228C73.4793 30.4607 73.6456 29.943 73.6456 29.37C73.6456 28.7044 73.4238 28.1683 72.9801 27.7616C72.5549 27.3549 71.9911 27.0314 71.2886 26.7911C70.6046 26.5323 69.8466 26.3104 69.0147 26.1255C68.1828 25.9407 67.3417 25.7281 66.4913 25.4878C65.6594 25.2289 64.8922 24.9054 64.1897 24.5172C63.5057 24.129 62.9511 23.6114 62.5259 22.9643C62.1007 22.2988 61.8881 21.4484 61.8881 20.4132C61.8881 19.4149 62.1469 18.4998 62.6646 17.6679C63.2007 16.8175 64.0141 16.1427 65.1048 15.6436C66.214 15.126 67.619 14.8672 69.3198 14.8672C70.4474 14.8672 71.5659 15.0151 72.6751 15.3109C73.7843 15.6066 74.7456 16.0318 75.559 16.5864L74.6439 18.8048C73.812 18.2502 72.9339 17.8528 72.0096 17.6124C71.0852 17.3536 70.1886 17.2242 69.3198 17.2242C68.229 17.2242 67.3324 17.3629 66.63 17.6402C65.9275 17.9175 65.4098 18.2872 65.0771 18.7494C64.7628 19.2115 64.6057 19.7292 64.6057 20.3022C64.6057 20.9863 64.8183 21.5316 65.2435 21.9383C65.6871 22.345 66.251 22.6685 66.935 22.9089C67.6375 23.1492 68.4047 23.371 69.2366 23.5744C70.0685 23.7593 70.9004 23.9718 71.7323 24.2122C72.5827 24.4525 73.3499 24.7668 74.0339 25.155C74.7364 25.5432 75.3002 26.0608 75.7254 26.7079C76.1506 27.3549 76.3632 28.1868 76.3632 29.2036C76.3632 30.1834 76.0951 31.0985 75.559 31.9488C75.0229 32.7807 74.191 33.4555 73.0633 33.9731C71.9541 34.4723 70.5491 34.7218 68.8484 34.7218ZM86.5704 34.6664C84.999 34.6664 83.6125 34.3429 82.4109 33.6958C81.2278 33.0488 80.3034 32.1614 79.6379 31.0338C78.9909 29.9061 78.6674 28.612 78.6674 27.1516C78.6674 25.6911 78.9816 24.397 79.6102 23.2694C80.2572 22.1417 81.1353 21.2636 82.2445 20.635C83.3722 19.988 84.6386 19.6645 86.0435 19.6645C87.467 19.6645 88.7241 19.9787 89.8148 20.6073C90.9055 21.2358 91.7559 22.1232 92.366 23.2694C92.9945 24.397 93.3088 25.7188 93.3088 27.2347C93.3088 27.3457 93.2996 27.4751 93.2811 27.623C93.2811 27.7709 93.2718 27.9095 93.2533 28.0389H80.7471V26.1255H91.8668L90.7854 26.7911C90.8039 25.8482 90.6097 25.0071 90.203 24.2676C89.7963 23.5282 89.2325 22.9551 88.5115 22.5484C87.809 22.1232 86.9864 21.9106 86.0435 21.9106C85.1192 21.9106 84.2966 22.1232 83.5756 22.5484C82.8546 22.9551 82.2907 23.5374 81.884 24.2954C81.4773 25.0348 81.274 25.8852 81.274 26.8465V27.2902C81.274 28.27 81.4958 29.1481 81.9395 29.9246C82.4017 30.6825 83.0395 31.2741 83.8529 31.6993C84.6663 32.1245 85.5999 32.3371 86.6536 32.3371C87.5225 32.3371 88.3082 32.1892 89.0106 31.8934C89.7316 31.5976 90.3602 31.1539 90.8963 30.5623L92.366 32.2816C91.7005 33.058 90.8686 33.6496 89.8703 34.0563C88.8905 34.463 87.7905 34.6664 86.5704 34.6664ZM104.853 19.6645C106.055 19.6645 107.108 19.8955 108.014 20.3577C108.938 20.8199 109.659 21.5224 110.177 22.4652C110.695 23.408 110.954 24.6004 110.954 26.0424V34.5H108.291V26.3474C108.291 24.9239 107.94 23.8517 107.238 23.1307C106.554 22.4097 105.583 22.0492 104.326 22.0492C103.383 22.0492 102.561 22.2341 101.858 22.6038C101.156 22.9736 100.61 23.5189 100.222 24.2399C99.8523 24.9609 99.6674 25.8575 99.6674 26.9297V34.5H97.0053V19.8031H99.5565V23.7685L99.1405 22.7148C99.6212 21.7534 100.361 21.0047 101.359 20.4686C102.357 19.9325 103.522 19.6645 104.853 19.6645ZM120.927 34.6664C119.448 34.6664 118.302 34.2689 117.488 33.474C116.675 32.6791 116.268 31.5421 116.268 30.0632V16.5864H118.93V29.9523C118.93 30.7472 119.125 31.3573 119.513 31.7825C119.919 32.2077 120.493 32.4203 121.232 32.4203C122.064 32.4203 122.757 32.1892 123.312 31.727L124.144 33.6404C123.737 33.9916 123.247 34.2504 122.674 34.4168C122.119 34.5832 121.537 34.6664 120.927 34.6664ZM113.773 21.9938V19.8031H123.145V21.9938H113.773ZM127.362 34.5V19.8031H130.024V34.5H127.362ZM128.693 16.9746C128.175 16.9746 127.741 16.8083 127.39 16.4755C127.057 16.1427 126.891 15.736 126.891 15.2554C126.891 14.7563 127.057 14.3403 127.39 14.0075C127.741 13.6748 128.175 13.5084 128.693 13.5084C129.211 13.5084 129.636 13.6748 129.969 14.0075C130.32 14.3218 130.496 14.7193 130.496 15.1999C130.496 15.6991 130.329 16.1243 129.996 16.4755C129.664 16.8083 129.229 16.9746 128.693 16.9746ZM142.955 19.6645C144.156 19.6645 145.21 19.8955 146.116 20.3577C147.04 20.8199 147.761 21.5224 148.279 22.4652C148.796 23.408 149.055 24.6004 149.055 26.0424V34.5H146.393V26.3474C146.393 24.9239 146.042 23.8517 145.339 23.1307C144.655 22.4097 143.685 22.0492 142.428 22.0492C141.485 22.0492 140.662 22.2341 139.96 22.6038C139.257 22.9736 138.712 23.5189 138.324 24.2399C137.954 24.9609 137.769 25.8575 137.769 26.9297V34.5H135.107V19.8031H137.658V23.7685L137.242 22.7148C137.723 21.7534 138.462 21.0047 139.461 20.4686C140.459 19.9325 141.624 19.6645 142.955 19.6645ZM160.526 34.6664C158.955 34.6664 157.568 34.3429 156.367 33.6958C155.183 33.0488 154.259 32.1614 153.594 31.0338C152.947 29.9061 152.623 28.612 152.623 27.1516C152.623 25.6911 152.937 24.397 153.566 23.2694C154.213 22.1417 155.091 21.2636 156.2 20.635C157.328 19.988 158.594 19.6645 159.999 19.6645C161.423 19.6645 162.68 19.9787 163.77 20.6073C164.861 21.2358 165.712 22.1232 166.322 23.2694C166.95 24.397 167.264 25.7188 167.264 27.2347C167.264 27.3457 167.255 27.4751 167.237 27.623C167.237 27.7709 167.227 27.9095 167.209 28.0389H154.703V26.1255H165.822L164.741 26.7911C164.76 25.8482 164.565 25.0071 164.159 24.2676C163.752 23.5282 163.188 22.9551 162.467 22.5484C161.765 22.1232 160.942 21.9106 159.999 21.9106C159.075 21.9106 158.252 22.1232 157.531 22.5484C156.81 22.9551 156.246 23.5374 155.84 24.2954C155.433 25.0348 155.23 25.8852 155.23 26.8465V27.2902C155.23 28.27 155.451 29.1481 155.895 29.9246C156.357 30.6825 156.995 31.2741 157.809 31.6993C158.622 32.1245 159.556 32.3371 160.609 32.3371C161.478 32.3371 162.264 32.1892 162.966 31.8934C163.687 31.5976 164.316 31.1539 164.852 30.5623L166.322 32.2816C165.656 33.058 164.824 33.6496 163.826 34.0563C162.846 34.463 161.746 34.6664 160.526 34.6664ZM170.961 34.5V13.9244H173.623V34.5H170.961Z" fill="white"/>
</svg>
