<svg width="25" height="30" viewBox="0 0 25 30" fill="none" xmlns="http://www.w3.org/2000/svg">
<g clip-path="url(#clip0_335_41)">
<path d="M23.7482 10.3134C21.7819 11.5285 20.5675 13.6114 20.5675 15.9258C20.5675 18.5294 22.1289 20.9016 24.5 21.8853C24.0373 23.3896 23.3434 24.7782 22.4759 26.0511C21.2036 27.8448 19.8735 29.6962 17.9072 29.6962C15.941 29.6962 15.3627 28.5391 13.0494 28.5391C10.794 28.5391 9.98434 29.7541 8.13373 29.7541C6.28313 29.7541 5.01084 28.0762 3.56506 25.9933C1.65663 23.1003 0.557831 19.7445 0.5 16.2151C0.5 10.487 4.2012 7.42045 7.90241 7.42045C9.86867 7.42045 11.488 8.69335 12.7024 8.69335C13.859 8.69335 15.7096 7.36259 17.9072 7.36259C20.2205 7.30473 22.4181 8.40406 23.7482 10.3134ZM16.8663 4.93251C17.8494 3.77532 18.3699 2.32884 18.4277 0.824503C18.4277 0.650925 18.4277 0.419488 18.3699 0.245911C16.6928 0.419488 15.1313 1.22952 14.0325 2.50242C13.0494 3.60174 12.4711 4.99037 12.4133 6.49471C12.4133 6.66828 12.4133 6.84186 12.4711 7.01544C12.5867 7.01544 12.7602 7.0733 12.8759 7.0733C14.4373 6.95758 15.8831 6.14755 16.8663 4.93251Z" fill="black"/>
</g>
<defs>
<clipPath id="clip0_335_41">
<rect width="24" height="29.5082" fill="white" transform="translate(0.5 0.245911)"/>
</clipPath>
</defs>
</svg>
