<svg width="25" height="25" viewBox="0 0 25 25" fill="none" xmlns="http://www.w3.org/2000/svg">
<path fill-rule="evenodd" clip-rule="evenodd" d="M20.5 13.8838L5.50003 13.8841C4.94775 13.8841 4.50003 13.4364 4.50002 12.8841C4.50001 12.3318 4.94772 11.8841 5.5 11.8841L20.5 11.8838C21.0523 11.8838 21.5 12.3315 21.5 12.8838C21.5 13.4361 21.0523 13.8838 20.5 13.8838Z" fill="#2545FF"/>
<path d="M10.2219 7.19204C10.6041 7.59073 10.5907 8.22375 10.192 8.60593L5.72904 12.884L10.192 17.1621C10.5907 17.5443 10.6041 18.1773 10.2219 18.576C9.83972 18.9747 9.2067 18.9881 8.808 18.6059L4.30061 14.2853C4.15302 14.144 3.97817 13.9766 3.84799 13.813C3.69231 13.6174 3.5 13.3074 3.5 12.884C3.5 12.4607 3.69231 12.1506 3.84799 11.9551C3.97817 11.7915 4.15302 11.6241 4.30061 11.4828L8.808 7.16213C9.2067 6.77996 9.83972 6.79334 10.2219 7.19204Z" fill="#2545FF"/>
</svg>
